<?xml version="1.0" encoding="UTF-8" standalone="no"?>
<!-- Generator: Adobe Illustrator 19.0.0, SVG Export Plug-In . SVG Version: 6.00 Build 0)  -->

<svg
   xmlns:dc="http://purl.org/dc/elements/1.1/"
   xmlns:cc="http://creativecommons.org/ns#"
   xmlns:rdf="http://www.w3.org/1999/02/22-rdf-syntax-ns#"
   xmlns:svg="http://www.w3.org/2000/svg"
   xmlns="http://www.w3.org/2000/svg"
   xmlns:sodipodi="http://sodipodi.sourceforge.net/DTD/sodipodi-0.dtd"
   xmlns:inkscape="http://www.inkscape.org/namespaces/inkscape"
   version="1.1"
   id="Layer_1"
   x="0px"
   y="0px"
   viewBox="0 0 512 512"
   style="enable-background:new 0 0 512 512;"
   xml:space="preserve"
   inkscape:version="0.91 r13725"
   sodipodi:docname="logo_cay_kahve_gunlugu2.svg"
   inkscape:export-filename="/home/emre/Masaüstü/logo_cay_kahve_gunlugu3.png"
   inkscape:export-xdpi="90"
   inkscape:export-ydpi="90"><metadata
     id="metadata4314"><rdf:RDF><cc:Work
         rdf:about=""><dc:format>image/svg+xml</dc:format><dc:type
           rdf:resource="http://purl.org/dc/dcmitype/StillImage" /><dc:title></dc:title></cc:Work></rdf:RDF></metadata><defs
     id="defs4312" /><sodipodi:namedview
     pagecolor="#ffffff"
     bordercolor="#666666"
     borderopacity="1"
     objecttolerance="10"
     gridtolerance="10"
     guidetolerance="10"
     inkscape:pageopacity="0"
     inkscape:pageshadow="2"
     inkscape:window-width="1360"
     inkscape:window-height="744"
     id="namedview4310"
     showgrid="false"
     inkscape:zoom="0.14428711"
     inkscape:cx="-76.077479"
     inkscape:cy="394.83009"
     inkscape:window-x="0"
     inkscape:window-y="-4"
     inkscape:window-maximized="1"
     inkscape:current-layer="Layer_1" /><path
     style="fill:#afaaa3;fill-opacity:1"
     d="M95.118,242.898V137.643c0-6.259,5.061-11.333,11.305-11.333h73.02h133.434h64.878  c6.244,0,11.305,5.074,11.305,11.333v317.334c0,12.519-10.123,22.666-22.61,22.666H117.866c-12.482,0-22.603-10.139-22.612-22.652  L95.118,242.898z"
     id="path4270" /><path
     style="fill:#c4c2bf;fill-opacity:1"
     d="M95.205,376.752l-0.086-133.854V137.643c0-6.259,5.061-11.333,11.305-11.333h73.02h100.43v175.667  c0,59.463-48.086,107.667-107.402,107.667l0,0C142.133,409.644,114.737,397.029,95.205,376.752z"
     id="path4272" /><path
     d="m 397.667,137.643 c 0,-10.995 -8.932,-19.939 -19.911,-19.939 l -151.629,0 c 0.096,-0.122 0.186,-0.249 0.282,-0.369 12.138,-15.142 19.261,-35.707 19.539,-56.422 0.299,-22.188 -7.077,-41.44 -20.769,-54.212 -3.658,-3.411 -9.381,-3.205 -12.782,0.462 -3.403,3.665 -3.196,9.402 0.459,12.813 20.114,18.762 19.848,60.556 -0.548,85.999 -2.915,3.637 -5.543,7.574 -7.879,11.728 l -33.477,0 c 0.096,-0.122 0.186,-0.25 0.283,-0.37 12.136,-15.142 19.255,-35.707 19.534,-56.421 0.298,-22.187 -7.079,-41.44 -20.771,-54.211 -3.657,-3.411 -9.38,-3.205 -12.782,0.462 -3.403,3.665 -3.196,9.402 0.46,12.813 20.113,18.761 19.849,60.556 -0.541,85.998 -2.916,3.637 -5.544,7.576 -7.882,11.729 l -42.829,0 c -10.979,0 -19.911,8.944 -19.911,19.939 l 0,287.18893 c 3.413754,83.13561 109.78976,61.41807 279.937,61.41807 17.213,0 31.217,-14.029 31.217,-31.273 m -17.213,10e-4 c 0,7.753 -6.282,14.06 -14.004,14.06 -129.82285,2.57872 -248.7913,16.01176 -262.724,-44.21207 l 0,-287.18393 c 0,-1.503 1.21,-2.727 2.699,-2.727 l 35.296,0 c -2.908,8.908 -4.586,18.304 -4.824,27.698 -0.567,22.338 6.813,41.817 20.781,54.848 1.742,1.625 3.953,2.429 6.16,2.429 2.424,0 4.842,-0.97 6.623,-2.891 3.403,-3.665 3.197,-9.402 -0.459,-12.813 -17.56,-16.383 -18.537,-45.851 -8.957,-69.272 l 35.854,0 c -2.908,8.908 -4.585,18.304 -4.823,27.698 -0.566,22.338 6.814,41.817 20.782,54.848 1.743,1.625 3.953,2.429 6.16,2.429 2.424,0 4.842,-0.97 6.623,-2.891 3.403,-3.665 3.197,-9.402 -0.459,-12.815 -17.56,-16.382 -18.537,-45.851 -8.96,-69.271 l 161.534,0 c 1.489,0 2.699,1.224 2.699,2.727 l 0,317.339 z"
     id="path4278"
     inkscape:connector-curvature="0"
     sodipodi:nodetypes="cscccccccccccsccccssccccccsscccscsccscscccsscc" /><g
     id="g4280" /><g
     id="g4282" /><g
     id="g4284" /><g
     id="g4286" /><g
     id="g4288" /><g
     id="g4290" /><g
     id="g4292" /><g
     id="g4294" /><g
     id="g4296" /><g
     id="g4298" /><g
     id="g4300" /><g
     id="g4302" /><g
     id="g4304" /><g
     id="g4306" /><g
     id="g4308" /><g
     id="g4887"
     transform="matrix(0.36576747,0.21117595,-0.21117595,0.36576747,136.48776,300.92652)"><path
       sodipodi:nodetypes="csssssssc"
       inkscape:connector-curvature="0"
       id="path3"
       d="m 402.98005,-184.47975 0.003,0 c 112.404,0 177.25136,92.771004 177.25136,206.162004 l 0,82.464996 c 0,113.392 -64.84636,206.163 -177.25136,206.163 l -0.003,0 c -112.404,0 -177.24836,-92.771 -177.24836,-206.162 l 0,-82.464996 c 0,-113.392 64.84336,-206.163004 177.24836,-206.163004 z"
       style="fill:#cb5d08;fill-opacity:1" /><path
       sodipodi:nodetypes="sscccccccsss"
       inkscape:connector-curvature="0"
       id="path5"
       d="m 583.48864,21.683254 0,82.464996 c 0,89.303 -33.18459,165.802 -112.32859,194.28 -0.039,-0.034 -0.074,-0.067 -0.113,-0.101 -22.807,-20.47 -70.263,-63.066 -72.844,-65.896 -34.217,-41.786 -30.186,-118.547 8.799,-167.621996 19.195,-24.162 31.092,-57.1509998 32.641,-90.511 1.619,-34.848 -7.869,-66.166 -26.716,-88.184004 -1.509,-1.763 -37.565,-39.773 -60.742,-64.104 16.255,-4.235 33.277,-6.489 50.796,-6.489 l 0.002,0 c 112.404,-0.001 180.50559,92.770004 180.50559,206.162004 z"
       style="fill:#803500;fill-opacity:1" /><path
       sodipodi:nodetypes="ccccccccsscsssscsscccscccc"
       inkscape:connector-curvature="0"
       id="path7"
       d="m 402.98005,-193.08475 c -121.5423,6.69498 -185.31297,104.884514 -186.9371,214.767004 l 0,82.465996 c 6.42279,121.11433 76.75391,213.11021 186.9371,214.767 l 0.003,0 c 123.13231,-7.48912 187.31738,-108.28882 188.02485,-214.767 l 0,-82.465996 C 590.63187,-96.179988 510.38418,-191.4576 402.98005,-193.08475 Z m 152.64124,297.233 c 0,108.932 -84.07291,181.90522 -150.86354,179.81001 C 308.30333,280.9325 252.18931,179.48813 250.99994,104.14825 l 0,-82.465996 c 0,-108.933 85.05371,-178.271614 151.98311,-178.922664 72.52063,-0.70544 152.63824,69.989664 152.63824,178.922664 z M 446.25605,-30.945746 c -0.49,36.6620002 -12.956,73.027 -34.201,99.769 -18.775,23.633 -30.003,55.486996 -30.804,87.396996 -0.829,33.013 9.518,61.366 29.137,79.833 10.13616,11.59613 -6.27964,22.95889 -14.745,15.664 -24.134,-22.717 -36.882,-56.823 -35.898,-96.037 0.916,-36.486 13.843,-73.021996 35.465,-100.237996 18.342,-23.088 29.107,-54.68099976 29.535,-86.675 0.439,-32.859 -9.896,-60.913 -29.102,-78.990004 -7.25708,-11.03735 6.26692,-23.17458 14.745,-15.665 23.651,22.261 36.388,55.980004 35.868,94.942004 z" /></g><path
     style="fill:#217117;fill-opacity:1"
     d="m 150.35841,501.16502 0,0 C 110.78245,507.50545 68.83581,495.43574 38.338136,464.94222 7.8399628,434.44783 -4.2340121,392.5091 2.1064138,352.94304 c 38.4604322,-6.16058 79.1578632,5.06344 109.4139062,33.68844 0.87828,0.83122 4.77625,4.48471 5.63605,5.34392 l 33.20204,109.18962 z"
     id="path4274"
     inkscape:connector-curvature="0" /><path
     style="fill:#2fa121;fill-opacity:1"
     d="m 160.28382,504.43774 c -26.66009,-23.57663 -42.02077,-59.16411 -38.28081,-97.2923 3.74097,-38.12646 25.72775,-70.06823 56.45692,-88.03374 26.65253,23.57752 42.01371,59.16587 38.27374,97.29406 -3.73996,38.12819 -25.72168,70.06473 -56.44985,88.03198 l 0,0 z"
     id="path4276"
     inkscape:connector-curvature="0" /><path
     d="m 9.3174671,344.95755 c -3.6693402,0.58851 -6.5476861,3.46507 -7.1368817,7.13656 -6.9882356,43.61202 7.4582251,88.26402 38.6455036,119.44597 31.184546,31.18122 75.845241,45.62381 119.466471,38.63601 1.04773,-0.16728 2.04277,-0.52583 2.9417,-1.04483 0.14636,-0.0845 0.28222,-0.18719 0.42358,-0.28035 0.11558,-0.0598 0.2372,-0.10115 0.35065,-0.16665 l 0.0416,-0.024 c 29.20062,-23.47606 56.90457,-57.34445 60.67023,-94.62207 3.85386,-39.29092 -11.52517,-78.38618 -41.13619,-104.57997 -2.77308,-2.45311 -6.8017,-2.8569 -10.00513,-1.0074 l -0.0407,0.0235 c -25.6777,15.01093 -44.87016,38.7426 -54.44954,66.30264 C 76.610946,344.47039 49.286494,336.27545 9.3174671,344.95755 Z M 52.995761,459.36857 c -25.796244,-25.7924 -38.504734,-62.12015 -34.657559,-98.26065 35.295773,-3.82193 69.918294,7.76404 95.837498,32.28341 l 0.0375,0.0349 c -0.57309,3.19338 -1.03417,6.41677 -1.35322,9.67017 -3.25884,33.22352 7.23728,66.30332 28.45869,91.56389 -32.77809,0.75869 -64.896865,-11.86867 -88.322899,-35.29175 z M 160.764,490.42064 c -22.44282,-22.3961 -33.88298,-53.94704 -30.773,-85.64241 3.10984,-31.69759 20.46498,-60.43759 46.83382,-78.06342 22.43936,22.3981 33.87542,53.94794 30.76768,85.64317 -3.11171,31.69636 -20.46376,60.43573 -46.8285,78.06266 z"
     id="path4278-3"
     inkscape:connector-curvature="0"
     sodipodi:nodetypes="ccccscscccscccccccccccsccc" /><path
     style="fill:#afaaa3;fill-opacity:1"
     d="m 506.40337,246.2391 0,34.442 c 0,47.605 -38.725,86.333 -86.326,86.333 l -37.93074,0 c -8.105,0 -14.697,-6.609 -14.697,-14.734 0,-8.124 6.592,-28.59525 14.697,-28.59525 l 37.93074,0 c 31.393,0 45.23657,-11.64975 45.23657,-43.00575 l 0,-34.442 c 0,-31.356 -13.84457,-46.47106 -45.23657,-46.47106 l -37.93074,0 c -8.105,0 -14.697,-17.00494 -14.697,-25.12994 0,-8.125 6.592,-14.734 14.697,-14.734 l 37.93074,0 c 47.601,0.004 86.326,38.734 86.326,86.337 z"
     id="path4268"
     inkscape:connector-curvature="0"
     sodipodi:nodetypes="ssssssssssssscs" /><path
     d="m 373.86681,212.03597 49.62267,0 c 26.647,0 32.17733,14.75536 32.17733,41.36636 l 0,19.10137 c 0,26.61 -5.53033,36.84879 -32.17733,36.84879 l -49.62267,0 c -7.1203,4.11091 -6.79818,13.28607 0,17.211 l 49.62267,0 c 36.138,0 49.38931,-17.96079 49.38931,-54.06079 l 0,-19.10137 c 0,-36.103 -13.25131,-57.42781 -49.38931,-57.42781 l -49.62267,0 c -6.51955,3.76407 -6.46792,12.3282 0,16.06245 z m 0,-44.41547 49.62267,0 c 42.855,0 77.71995,34.869 77.71995,77.728 l 0,34.441 c 0,42.86 -34.86495,77.727 -77.71995,77.727 l -49.62267,0 c -6.85002,3.95486 -6.91137,13.22172 0,17.212 l 49.62267,0 c 52.346,0 94.93195,-42.59 94.93195,-94.94 l 0,-34.442 c 0,-52.348 -42.58595,-94.938 -94.93195,-94.938 l -50.05583,0 c -6.65976,3.84501 -6.75334,13.06287 0.43316,17.212 z"
     id="path4278-7"
     inkscape:connector-curvature="0"
     sodipodi:nodetypes="cssssccssssccccsssccsssccc" /></svg>