<?xml version="1.0" encoding="UTF-8" standalone="no"?>
<!-- Created with Inkscape (http://www.inkscape.org/) -->

<svg
   xmlns:dc="http://purl.org/dc/elements/1.1/"
   xmlns:cc="http://creativecommons.org/ns#"
   xmlns:rdf="http://www.w3.org/1999/02/22-rdf-syntax-ns#"
   xmlns:svg="http://www.w3.org/2000/svg"
   xmlns="http://www.w3.org/2000/svg"
   xmlns:sodipodi="http://sodipodi.sourceforge.net/DTD/sodipodi-0.dtd"
   xmlns:inkscape="http://www.inkscape.org/namespaces/inkscape"
   id="svg2"
   version="1.1"
   inkscape:version="0.91 r13725"
   xml:space="preserve"
   width="508.75"
   height="508.75"
   viewBox="0 0 508.75 508.75"
   sodipodi:docname="rencs.svg"><metadata
     id="metadata8"><rdf:RDF><cc:Work
         rdf:about=""><dc:format>image/svg+xml</dc:format><dc:type
           rdf:resource="http://purl.org/dc/dcmitype/StillImage" /><dc:title></dc:title></cc:Work></rdf:RDF></metadata><defs
     id="defs6" /><sodipodi:namedview
     pagecolor="#ffffff"
     bordercolor="#666666"
     borderopacity="1"
     objecttolerance="10"
     gridtolerance="10"
     guidetolerance="10"
     inkscape:pageopacity="0"
     inkscape:pageshadow="2"
     inkscape:window-width="1366"
     inkscape:window-height="744"
     id="namedview4"
     showgrid="false"
     inkscape:zoom="0.92776413"
     inkscape:cx="183.80427"
     inkscape:cy="262.4572"
     inkscape:window-x="0"
     inkscape:window-y="-4"
     inkscape:window-maximized="1"
     inkscape:current-layer="g10" /><g
     id="g10"
     inkscape:groupmode="layer"
     inkscape:label="ink_ext_XXXXXX"
     transform="matrix(1.25,0,0,-1.25,0,508.75)"><path
       inkscape:connector-curvature="0"
       id="path14"
       style="fill:#ff7b29;fill-opacity:1;fill-rule:nonzero;stroke:none"
       d="m 335.69037,203.199 c 0,-73.17446 -59.31626,-132.491373 -132.49137,-132.491373 -73.17185,0 -132.491373,59.316913 -132.491373,132.491373 0,73.1725 59.319523,132.49137 132.491373,132.49137 73.17511,0 132.49137,-59.31887 132.49137,-132.49137 z" /><g
       id="g4226"><path
         sodipodi:nodetypes="cccccccccccccccccccccccccccccccccccccc"
         inkscape:connector-curvature="0"
         id="path5809-3"
         d="M 204.8,2.2449726 C 175.44029,14.081709 132.48025,57.060468 149.6,106.4 c 10.64672,28.91505 10.34374,36.30468 6.00975,57.2473 -19.2462,-1.38411 -41.06668,28.90206 -36.62171,50.65796 1.02855,3.47979 2.89269,6.76726 5.60183,9.21093 -16.89977,14.19929 -36.488858,28.0048 -43.546351,50.0336 -3.60501,9.03922 -5.327533,23.14104 4.825188,28.48339 4.284588,1.63796 9.119644,0.44137 12.954917,-1.79693 -1.680862,28.68331 10.108666,57.35852 30.826386,77.13992 11.22749,11.33126 24.65868,22.69705 40.73782,25.36597 12.57451,-1.90797 15.25803,-22.47849 3.2001,-27.11504 -19.39017,-14.23822 -40.34223,-32.66081 -41.74505,-58.39827 -1.0341,-3.96008 0.45203,-2.83869 2.4213,-0.5047 8.3293,8.21527 14.11426,20.07458 25.14841,25.04181 12.35243,2.0638 20.32311,-15.81753 11.83671,-24.3783 -7.99904,-15.53449 -21.96321,-26.61585 -34.66173,-38.12073 2.37407,-7.29245 6.85067,-16.10681 11.23195,-20.90624 2.17354,8.48515 13.29314,12.75664 19.94904,6.47636 9.69849,-8.19298 7.97923,-22.45154 14.65613,-32.55806 5.01395,-10.12929 15.54715,-21.82211 27.9874,-18.05637 15.36455,5.56612 19.86421,23.41566 24.06285,37.38106 2.1049,8.44173 9.42342,19.68137 19.53135,15.85916 4.07561,-1.58969 7.21492,-5.0711 8.95205,-9.02601 4.45808,6.78657 8.32651,14.02848 10.81208,21.78079 -16.31543,12.415 -34.21005,27.5457 -37.36584,48.99154 0.83269,12.82636 20.88076,15.58409 26.153,4.27589 4.70546,-7.10012 10.02283,-14.48685 16.53838,-19.65428 -1.3893,24.69451 -18.12815,45.88314 -38.65697,58.39455 -7.63238,5.02349 -15.78502,16.14395 -8.90528,24.82363 7.22165,8.48833 20.79714,5.44468 27.78073,-1.77082 31.50574,-20.33033 54.8347,-56.70477 52.33958,-95.04186 9.85034,6.84972 23.31053,-4.40808 20.928,-15.4654 -4.43685,-24.13605 -22.4785,-42.56261 -41.16578,-57.07939 -2.7411,-2.2863 -7.20106,-4.1172 -2.95271,-7.03383 7.68321,-12.15564 2.334,-27.83373 -4.27479,-39.23022 -6.38245,-9.91312 -17.2166,-17.57271 -29.2644,-17.94543 C 251.2594,144.46246 251.06735,136.18619 260.8,106.4 275.82326,54.871083 234.34809,13.630803 204.8,2.2449726 Z"
         style="display:inline;opacity:1;fill:#ffffff;fill-opacity:1;fill-rule:evenodd;stroke:#ffffff;stroke-width:4.45535898;stroke-linecap:round;stroke-linejoin:round;stroke-miterlimit:4;stroke-dasharray:none;stroke-dashoffset:0;stroke-opacity:1" /><path
         inkscape:connector-curvature="0"
         id="path3482"
         d="m 230.03039,177.60002 c -3.37472,0.16411 -6.32229,-1.84932 -8.31564,-4.41609 -2.97306,-3.75593 -5.39827,-8.23103 -5.95187,-13.04009 0.63492,-1.20358 1.54732,0.64154 1.93171,1.16077 1.0838,1.90793 2.40149,4.01834 4.75194,4.44813 3.53496,0.87241 7.97239,0.46063 10.41884,3.71687 1.4062,1.95028 2.8274,5.16594 0.57453,7.05717 -0.93079,0.87985 -2.16996,1.12431 -3.40951,1.07324 z"
         style="display:inline;fill:#000000;fill-opacity:1;stroke:#000000;stroke-width:4.45535898;stroke-miterlimit:4;stroke-dasharray:none;stroke-opacity:1" /><path
         inkscape:connector-curvature="0"
         id="path3488"
         d="m 180.40028,177.64448 c -2.10577,0.0657 -4.77234,-1.15729 -4.63881,-3.60643 0.17113,-2.24604 1.30987,-4.52839 3.09576,-5.91729 3.00474,-2.00345 6.80915,-1.55431 10.10208,-2.68352 2.52755,-0.95475 3.03656,-4.01414 4.94469,-5.60742 1.1968,0.044 0.56798,1.68943 0.38367,2.38993 -1.69598,5.2165 -4.08913,10.71671 -8.7757,13.90805 -1.52115,0.95298 -3.30575,1.54621 -5.11169,1.51668 z"
         style="display:inline;fill:#000000;fill-opacity:1;stroke:#000000;stroke-width:4.45535898;stroke-miterlimit:4;stroke-dasharray:none;stroke-opacity:1" /><path
         sodipodi:nodetypes="czcscc"
         inkscape:connector-curvature="0"
         id="path5943-6"
         d="m 179.42557,114.21543 c 5.95186,-10.43101 6.5519,-10.18969 9.92448,-13.38811 3.37258,-3.198412 3.67112,-11.894377 3.17932,-16.45727 -3.09253,13.103789 -5.22478,7.83261 -6.5519,6.551899 0,0 -6.5519,-10.328885 0,-26.207587 -9.93871,13.103789 -16.72036,25.966258 -6.5519,49.501068 z"
         style="display:inline;fill:#000000;fill-opacity:1;fill-rule:evenodd;stroke:#000000;stroke-width:4.45535898;stroke-linejoin:round;stroke-miterlimit:4;stroke-dasharray:none;stroke-opacity:1" /><path
         sodipodi:nodetypes="czcscc"
         inkscape:connector-curvature="0"
         id="path5943-6-5"
         d="m 230.95708,114.21543 c -5.95186,-10.43101 -6.55189,-10.18969 -9.92448,-13.38811 -3.37258,-3.198412 -3.67111,-11.894377 -3.17931,-16.45727 3.09252,13.103789 5.22477,7.83261 6.5519,6.551899 0,0 6.55189,-10.328885 0,-26.207587 9.93871,13.103789 16.72036,25.966258 6.55189,49.501068 z"
         style="display:inline;fill:#000000;fill-opacity:1;fill-rule:evenodd;stroke:#000000;stroke-width:4.45535898;stroke-linejoin:round;stroke-miterlimit:4;stroke-dasharray:none;stroke-opacity:1" /><path
         sodipodi:nodetypes="ccccccccccccccccccccccccccccccccccccccccccccccccccccccccccccccccccccccccccccccczcccccccccccccczzccccccccccccccccccc"
         inkscape:connector-curvature="0"
         id="path5809"
         d="m 167.74152,389.43515 c -8.10462,-3.41633 -14.72662,-9.72346 -21.63822,-15.06897 -19.85051,-16.33139 -33.83833,-40.80044 -33.94667,-66.90132 -0.82516,-18.64219 5.36866,-36.54392 12.39332,-53.51091 0.21833,-1.41651 2.66419,-5.54924 -0.11698,-5.69931 -10.00355,5.28 -18.23886,13.76732 -24.40005,23.19518 -3.896746,5.67203 -5.987902,12.63788 -8.954904,18.54972 0.703702,-12.08537 7.311578,-23.20524 14.910994,-32.34555 7.33822,-8.37967 16.03422,-15.43503 25.42688,-21.3691 10.69598,-11.55622 21.44605,-23.6089 31.16609,-35.72187 -8.62841,3.3742 -15.9324,9.36178 -24.3224,13.17463 -2.71093,1.66288 -6.55246,0.30573 -6.74596,-3.09919 -0.93027,-10.07985 3.98115,-20.08775 10.4386,-27.57052 5.16334,-6.26186 14.01983,-7.33836 21.39418,-5.00929 1.54766,0.29735 3.96874,1.01901 3.43256,-1.68281 1.40671,-11.90554 3.49796,-23.76194 4.71107,-35.66965 -0.36611,-16.47513 -9.32402,-31.17592 -11.54941,-47.310073 -2.47986,-17.773353 2.70659,-36.181078 13.75885,-50.272335 8.63579,-11.133665 19.29937,-20.955192 31.44404,-28.094057 17.41687,10.776024 33.20221,25.908089 41.1478,45.135947 7.62383,18.007847 5.37288,38.697288 -2.39336,56.253268 -7.49467,18.11549 -3.46018,37.99648 -0.68923,56.65355 0.50718,1.756 0.24334,4.29491 1.20701,5.65821 7.05043,-2.04878 15.80241,-3.34538 21.64356,2.27587 8.12532,7.47841 14.12643,18.88068 12.41155,30.14328 -0.33419,3.34281 -4.25267,4.45975 -6.79147,2.55835 -8.21607,-4.01478 -15.45216,-9.97658 -24.04529,-13.25362 10.52385,12.51738 21.02443,25.22941 32.74313,36.68041 9.25387,6.11885 18.24995,12.96022 25.09889,21.8417 6.71712,8.68742 13.07793,18.79583 13.66595,30.0335 -1.24908,0.56456 -1.44106,-2.80184 -2.0215,-3.51689 -4.4342,-12.22337 -12.07999,-23.1387 -22.2701,-31.25579 -2.92812,-1.97853 -5.72467,-5.5987 -9.43819,-5.73387 -1.68292,2.63996 0.90754,6.11008 1.58374,8.80631 7.45302,16.73059 12.35998,34.95082 11.01121,53.40404 -0.83138,27.84286 -18.26049,52.55994 -39.91615,68.84922 -5.17022,3.41424 -10.06818,8.12739 -16.11588,9.77421 -0.6221,-1.78267 3.13907,-2.82371 3.97074,-4.19029 16.91712,-12.8568 34.72772,-27.22885 41.76658,-48.097 5.36553,-14.52168 5.71923,-30.56993 2.88607,-45.64491 -15.30568,6.31713 -28.21369,17.75438 -37.14345,31.66567 -1.28417,1.3065 -2.34931,4.33406 -4.09003,4.69744 4.80727,-11.01425 12.53866,-20.78927 21.87784,-28.39756 5.43764,-5.1187 12.2394,-8.78188 17.23775,-14.3072 0.38082,-5.23863 -2.37482,-10.46461 -3.91067,-15.45739 -13.5728,-27.53178 -34.82509,-50.35435 -52.64653,-68.17579 8.91072,17.82144 17.57268,34.15792 18.3533,54.15257 -9.44258,-27.42041 -14.71197,-47.46204 -36.17473,-54.15257 -8.91072,-2.46124 -8.91072,-2.70801 -17.82144,0 -24.96234,11.78807 -26.73215,26.73216 -36.32526,53.47516 0.68239,-17.83229 9.59311,-35.65372 18.50383,-53.47516 -17.82144,17.82144 -42.16335,46.26459 -50.23487,62.52913 -2.55787,6.33997 -5.80681,12.86487 -6.3738,19.68631 1.67441,4.86195 7.42562,6.96835 10.84878,10.45165 10.51948,7.89587 19.95072,17.39435 26.16901,29.09634 0.57876,1.62791 2.93691,4.03862 2.46731,5.55581 -8.35763,-10.81824 -16.27965,-22.56113 -28.05254,-30.03293 -4.38494,-2.27556 -8.55278,-6.11051 -13.45406,-6.90717 -2.17449,7.61289 -1.61011,15.92285 -1.60115,23.81901 0.9533,19.38579 10.02728,37.81836 24.10065,51.07962 7.80893,8.25554 17.62023,14.20129 25.91504,21.85547 0.43689,0.49301 0.11671,0.94967 -0.50203,0.87152 z M 137.32914,207.6102 c 6.13101,-2.70472 11.9684,-6.58723 16.95126,-11.10359 2.78984,-2.52395 -2.07873,-5.19386 -4.30275,-3.68958 -2.00506,0.19808 -4.45091,2.33028 -6.30416,1.60782 0.97162,-2.50818 4.61445,-3.4406 6.62103,-5.17317 2.6045,-2.12952 6.81545,-3.23917 8.27657,-6.43377 -1.57636,-2.01973 -5.11774,-0.74703 -7.37518,-0.74703 -8.56948,1.46323 -14.36411,9.62961 -16.96462,17.39571 -0.88166,2.84053 -1.35831,8.40131 3.09785,8.14361 z m 136.50829,-0.0763 c 4.07767,-0.21445 3.02667,-5.99642 2.19823,-8.60815 -3.16537,-8.94516 -10.94027,-17.8225 -21.21919,-17.22971 -1.29488,-0.29861 -4.31624,0.45298 -2.49542,2.09112 4.10255,4.24362 10.61202,5.87384 14.2483,10.44091 -3.30301,0.58227 -7.41752,-3.49613 -10.62297,-0.82333 -1.38265,2.84432 2.77619,4.83741 4.33085,6.59201 4.1306,2.93833 8.46006,6.64935 13.5602,7.53715 z m -50.82466,-15.01422 c 8.91071,4.3773 12.02698,-0.38049 14.39996,-8.30544 3.30974,-11.25939 -0.1469,-23.13266 -2.54228,-34.25458 -1.3334,-7.2862 -5.72853,-13.3174 -8.34845,-20.10802 -1.97955,-3.54239 -5.8299,-5.32396 -9.3351,-7.01773 -2.37133,1.2326 -5.80329,4.89398 -2.46598,7.0927 1.56918,1.10449 5.46802,3.17016 2.70964,5.26663 -3.05195,1.88796 -5.98706,-2.24295 -8.45956,-3.51555 -2.52678,-2.63885 -6.33035,-1.74852 -8.64473,0.6786 -2.01954,1.79246 -6.80212,5.60211 -8.51269,1.46474 0.68667,-2.6341 4.23185,-3.21756 5.53171,-5.24656 0.82993,-2.86116 -3.06878,-5.90179 -5.70843,-5.00826 -4.25096,1.89291 -8.43109,4.8763 -9.228,9.80901 -3.85415,6.92529 -6.86958,14.27792 -8.26754,22.12198 -1.58453,9.1047 -3.86345,18.794 -1.46516,27.91647 1.89362,6.71231 5.78302,13.05128 14.69374,9.10601 8.91071,-3.94527 26.73215,-4.37729 35.64287,0 z m 12.44004,-64.72837 c 2.79509,-15.51312 11.89932,-30.207423 9.16388,-46.413443 -2.46542,-20.548222 -14.22597,-39.165669 -30.43875,-51.753849 -3.0333,-2.003574 -5.82525,-5.437916 -9.4133,-6.121306 -9.05434,5.28762 -16.41433,13.169773 -23.38394,20.913944 -9.88591,12.891295 -16.36404,29.042488 -16.1962,45.402351 1.28512,14.540953 8.59587,27.738813 10.49178,42.194713 0.33642,2.27408 1.85264,-1.48426 2.46465,-1.9867 5.80962,-9.34116 10.80549,-21.32815 22.31428,-24.8097 10.31207,-3.15096 19.75747,4.89757 24.82041,13.13178 3.15345,4.86677 5.39582,10.3617 9.34849,14.68342 z m -33.64011,-6.65225 c 5.10956,-0.51377 10.70108,0.67982 15.57768,-0.98666 0.76521,-3.53808 -4.08316,-5.26798 -6.64823,-6.61208 -6.06153,-2.90867 -14.23332,-0.34001 -17.89506,5.18899 -1.22734,3.10767 3.38503,2.21305 5.06985,2.41377 1.29857,0.0136 2.59717,-0.002 3.89576,-0.004 z"
         style="display:inline;opacity:1;fill:#000000;fill-opacity:1;fill-rule:evenodd;stroke:#000000;stroke-width:4.45535898;stroke-linecap:round;stroke-linejoin:round;stroke-miterlimit:4;stroke-dasharray:none;stroke-dashoffset:0;stroke-opacity:1" /></g></g></svg>