<?xml version="1.0" encoding="UTF-8" standalone="no"?>
<!-- Created with Inkscape (http://www.inkscape.org/) -->

<svg
   xmlns:osb="http://www.openswatchbook.org/uri/2009/osb"
   xmlns:dc="http://purl.org/dc/elements/1.1/"
   xmlns:cc="http://creativecommons.org/ns#"
   xmlns:rdf="http://www.w3.org/1999/02/22-rdf-syntax-ns#"
   xmlns:svg="http://www.w3.org/2000/svg"
   xmlns="http://www.w3.org/2000/svg"
   xmlns:sodipodi="http://sodipodi.sourceforge.net/DTD/sodipodi-0.dtd"
   xmlns:inkscape="http://www.inkscape.org/namespaces/inkscape"
   width="210mm"
   height="297mm"
   viewBox="0 0 744.09448819 1052.3622047"
   id="svg2"
   version="1.1"
   inkscape:version="0.91 r13725"
   sodipodi:docname="drawing4.svg"
   inkscape:export-filename="/home/emre/Masaüstü/log.png"
   inkscape:export-xdpi="68.980469"
   inkscape:export-ydpi="68.980469">
  <defs
     id="defs4">
    <linearGradient
       id="linearGradient5636"
       osb:paint="solid">
      <stop
         style="stop-color:#000000;stop-opacity:1;"
         offset="0"
         id="stop5638" />
    </linearGradient>
  </defs>
  <sodipodi:namedview
     id="base"
     pagecolor="#ffffff"
     bordercolor="#666666"
     borderopacity="1.0"
     inkscape:pageopacity="0.0"
     inkscape:pageshadow="2"
     inkscape:zoom="0.63"
     inkscape:cx="322.014"
     inkscape:cy="366.24865"
     inkscape:document-units="px"
     inkscape:current-layer="g5911"
     showgrid="true"
     inkscape:window-width="1327"
     inkscape:window-height="747"
     inkscape:window-x="39"
     inkscape:window-y="21"
     inkscape:window-maximized="1"
     showguides="false"
     inkscape:snap-to-guides="true"
     inkscape:snap-page="false"
     inkscape:snap-others="true"
     inkscape:snap-object-midpoints="false"
     guidetolerance="10000"
     objecttolerance="20"
     gridtolerance="20"
     inkscape:snap-nodes="true"
     inkscape:object-nodes="true">
    <inkscape:grid
       spacingx="10"
       spacingy="10"
       empspacing="50"
       units="px"
       dotted="false"
       type="xygrid"
       id="grid3604" />
  </sodipodi:namedview>
  <metadata
     id="metadata7">
    <rdf:RDF>
      <cc:Work
         rdf:about="">
        <dc:format>image/svg+xml</dc:format>
        <dc:type
           rdf:resource="http://purl.org/dc/dcmitype/StillImage" />
        <dc:title></dc:title>
      </cc:Work>
    </rdf:RDF>
  </metadata>
  <g
     inkscape:groupmode="layer"
     id="layer3"
     inkscape:label="Head Color"
     style="display:inline">
    <path
       style="fill:#2b1100;stroke-width:5;stroke-miterlimit:4;stroke-dasharray:none;stroke:#2b1100;stroke-opacity:1"
       d="m 387.87549,569.10573 c -3.78726,-0.18418 -7.09515,2.07538 -9.33217,4.95592 -3.3365,4.21508 -6.05818,9.23723 -6.67946,14.63416 0.71254,1.35072 1.73647,-0.71996 2.16786,-1.30266 1.21628,-2.14116 2.69505,-4.50956 5.33283,-4.99189 3.96709,-0.97906 8.94696,-0.51693 11.69248,-4.17124 1.5781,-2.18868 3.17303,-5.79744 0.64476,-7.91986 -1.04458,-0.98741 -2.43522,-1.26175 -3.8263,-1.20443 z"
       id="path3482"
       inkscape:connector-curvature="0" />
    <path
       style="fill:#2b1100;stroke-width:5;stroke-miterlimit:4;stroke-dasharray:none;stroke:#2b1100;stroke-opacity:1"
       d="m 332.17839,569.05583 c -2.36319,-0.0738 -5.35572,1.29876 -5.20587,4.0473 0.19205,2.5206 1.46999,5.08195 3.47419,6.64063 3.37205,2.24837 7.64153,1.74431 11.33701,3.01156 2.83652,1.07147 3.40776,4.50486 5.54914,6.29291 1.34311,-0.0494 0.63742,-1.89596 0.43058,-2.68209 -1.90331,-5.85419 -4.58901,-12.02677 -9.84849,-15.60823 -1.7071,-1.06947 -3.70985,-1.73522 -5.73656,-1.70208 z"
       id="path3488"
       inkscape:connector-curvature="0" />
    <path
       style="display:inline;opacity:1;fill:#2b1100;fill-opacity:1;fill-rule:evenodd;stroke:#2b1100;stroke-width:5;stroke-linecap:round;stroke-linejoin:round;stroke-miterlimit:4;stroke-dasharray:none;stroke-dashoffset:0;stroke-opacity:1"
       d="m 317.97218,331.375 c -9.09537,3.83395 -16.52687,10.9121 -24.28336,16.91106 -22.27713,18.3278 -37.97488,45.78805 -38.09645,75.07962 -0.92604,20.92108 6.02493,41.01119 13.90832,60.0523 0.24502,1.58967 2.98988,6.2276 -0.13128,6.39601 -11.22642,-5.92545 -20.46846,-15.45029 -27.38281,-26.03065 -4.3731,-6.3654 -6.71988,-14.18279 -10.04958,-20.81731 0.78972,13.56273 8.20537,26.04193 16.73377,36.29959 8.23527,9.40404 17.9943,17.32188 28.53516,23.98136 12.0035,12.9689 24.0677,26.49495 34.97596,40.08864 -9.68318,-3.78667 -17.88005,-10.5062 -27.29567,-14.78515 -3.04232,-1.86614 -7.35346,-0.34309 -7.57061,3.47806 -1.04399,11.31204 4.46782,22.54336 11.71466,30.94084 5.79452,7.02734 15.73366,8.23544 24.00949,5.62166 1.73685,-0.3337 4.4539,-1.14358 3.85217,1.88852 1.57866,13.36093 3.92557,26.6667 5.28696,40.03005 -0.41086,18.48912 -10.46382,34.987 -12.96124,53.09345 -2.78302,19.94604 3.03744,40.604 15.44078,56.41783 9.69146,12.49469 21.6586,23.51684 35.28789,31.52839 19.54597,-12.09333 37.26098,-29.0752 46.17788,-50.65355 8.5558,-20.2092 6.02967,-43.4278 -2.68594,-63.12989 -8.41085,-20.33001 -3.88317,-42.64133 -0.77349,-63.57912 0.56919,-1.97066 0.27309,-4.81993 1.35456,-6.34989 7.9123,2.29923 17.73416,3.75433 24.28936,-2.55408 9.11859,-8.3926 15.8533,-21.18873 13.92879,-33.82812 -0.37505,-3.75145 -4.77253,-5.00492 -7.62169,-2.8711 -9.22043,4.50557 -17.3411,11.19617 -26.98468,14.8738 11.81032,-14.04754 23.59454,-28.31354 36.74579,-41.16437 10.38509,-6.86684 20.4809,-14.54452 28.16707,-24.51171 7.53825,-9.74942 14.67664,-21.09351 15.33654,-33.70493 -1.40178,-0.63357 -1.61723,3.14435 -2.26863,3.94681 -4.97625,13.7176 -13.55668,25.96728 -24.99249,35.07663 -3.28606,2.2204 -6.42447,6.28311 -10.59195,6.4348 -1.88865,-2.96268 1.01849,-6.857 1.77735,-9.88282 8.36411,-18.77582 13.87092,-39.22336 12.35727,-59.93238 -0.93301,-31.24647 -20.49273,-58.98508 -44.79567,-77.26563 -5.80224,-3.83161 -11.29896,-9.12091 -18.08594,-10.96905 -0.69816,2.00059 3.52279,3.16889 4.45613,4.70253 18.98514,14.42847 38.97298,30.55742 46.8723,53.97658 6.02143,16.29687 6.41836,34.30692 3.23888,51.22473 -17.17672,-7.08936 -31.66265,-19.92475 -41.68403,-35.53661 -1.44115,-1.46621 -2.6365,-4.86387 -4.59001,-5.27167 5.39494,12.36067 14.07144,23.33063 24.55228,31.86898 6.10236,5.74444 13.73559,9.85541 19.34496,16.05618 0.42737,5.87902 -2.66513,11.74385 -4.38873,17.34696 C 433.85027,496.74973 410,522.36222 390,542.36222 c 10,-20 19.72084,-38.33352 20.59688,-60.77239 C 400,512.36222 394.08646,534.85383 370,542.36222 c -10,2.76212 -10,3.03906 -20,0 -28.01384,-13.22908 -30,-30 -40.76581,-60.01217 C 310,502.36222 320,522.36222 330,542.36222 c -20,-20 -47.31756,-51.92016 -56.37578,-70.17293 -2.87055,-7.115 -6.51666,-14.43753 -7.15295,-22.09285 1.87908,-5.4563 8.33335,-7.82019 12.17497,-11.7293 11.80542,-8.8611 22.38958,-19.52071 29.36801,-32.6532 0.64952,-1.82691 3.29594,-4.53232 2.76893,-6.23498 -9.3793,12.14072 -18.26974,25.3191 -31.4818,33.70428 -4.92096,2.55374 -9.5983,6.85748 -15.09874,7.75154 -2.4403,-8.54353 -1.80694,-17.86933 -1.79687,-26.73075 1.06983,-21.75559 11.25304,-42.44143 27.04681,-57.3238 8.76352,-9.26473 19.7742,-15.93732 29.083,-24.52717 0.4903,-0.55329 0.13097,-1.06576 -0.5634,-0.97806 z m -34.13011,204.05197 c 6.88048,3.03535 13.43146,7.39248 19.02344,12.46094 3.13088,2.83249 -2.33284,5.82878 -4.82873,4.14062 -2.25017,-0.22231 -4.99501,-2.61516 -7.07482,-1.80438 1.0904,2.8148 5.17855,3.8612 7.43042,5.80556 2.92289,2.38984 7.6486,3.63514 9.28833,7.22027 -1.76906,2.26662 -5.74335,0.83835 -8.27674,0.83835 -9.61706,-1.6421 -16.12004,-10.80678 -19.03846,-19.52224 -0.98943,-3.18776 -1.52435,-9.42831 3.47656,-9.13912 z m 153.19561,0.0856 c 4.57615,0.24067 3.39666,6.72945 2.46695,9.66045 -3.55231,10.03865 -12.27765,20.00119 -23.8131,19.33594 -1.45318,0.33512 -4.84388,-0.50835 -2.80048,-2.34675 4.60407,-4.76237 11.90928,-6.59187 15.99008,-11.71725 -3.70679,-0.65345 -8.32428,3.92352 -11.92158,0.92398 -1.55166,-3.19201 3.11556,-5.42875 4.86028,-7.39784 4.63553,-3.29752 9.49425,-7.4622 15.21785,-8.45853 z M 380,552.36222 c 10,-4.9124 13.49721,0.42701 16.16028,9.32073 3.71433,12.63579 -0.16486,25.96049 -2.85307,38.442 -1.4964,8.1769 -6.4288,14.94537 -9.36899,22.56611 -2.22154,3.97543 -6.54257,5.97478 -10.47626,7.8756 -2.66121,-1.38327 -6.51271,-5.49224 -2.76743,-7.95973 1.761,-1.23952 6.13645,-3.5577 3.04087,-5.91046 -3.42502,-2.11874 -6.71894,2.51714 -9.49369,3.94532 -2.83566,2.96142 -7.1042,1.96226 -9.7015,-0.76157 -2.26641,-2.01157 -7.63363,-6.28692 -9.55331,-1.64378 0.77061,2.9561 4.74916,3.61089 6.20793,5.88791 0.93138,3.21093 -3.44391,6.62325 -6.40625,5.6205 -4.77062,-2.12431 -9.46174,-5.4724 -10.35607,-11.00811 -4.3253,-7.77187 -7.70935,-16.02331 -9.2782,-24.82626 -1.77823,-10.21769 -4.33573,-21.09146 -1.64427,-31.32909 C 325.63515,555.04854 330,547.93466 340,552.36222 c 10,4.42755 30,4.91239 40,0 z m 13.96076,72.64103 c 3.13678,17.40951 13.35396,33.9001 10.28412,52.08721 -2.7668,23.06012 -15.96502,43.95344 -34.1597,58.08045 -3.40411,2.2485 -6.53737,6.10267 -10.56403,6.8696 -10.16117,-5.934 -18.42089,-14.7797 -26.24248,-23.47055 -11.09441,-14.46718 -18.36446,-32.59276 -18.17609,-50.95252 1.44221,-16.31849 9.64666,-31.12971 11.77434,-47.35277 0.37753,-2.55207 2.07911,1.66571 2.76593,2.22957 6.51981,10.48306 12.1264,23.93538 25.04206,27.84254 11.57267,3.53614 22.17272,-5.49627 27.85457,-14.73707 3.53894,-5.4617 6.05542,-11.62835 10.49129,-16.47837 z m -37.75241,7.46545 c 5.73418,0.57658 12.00923,-0.76292 17.48197,1.10727 0.85875,3.97059 -4.58231,5.91197 -7.46094,7.42037 -6.80252,3.26423 -15.97327,0.38157 -20.08263,-5.82332 -1.37737,-3.48756 3.79883,-2.48357 5.68961,-2.70883 1.45732,-0.0153 2.91465,0.002 4.37199,0.005 z"
       id="path5809"
       inkscape:connector-curvature="0"
       sodipodi:nodetypes="ccccccccccccccccccccccccccccccccccccccccccccccccccccccccccccccccccccccccccccccczcccccccccccccczzccccccccccccccccccc" />
  </g>
  <g
     inkscape:groupmode="layer"
     id="layer7"
     inkscape:label="Beard Color"
     style="display:inline">
    <path
       style="display:inline;fill:#2b1100;fill-opacity:1;fill-rule:evenodd;stroke:#2b1100;stroke-width:5;stroke-linejoin:round;stroke-miterlimit:4;stroke-dasharray:none;stroke-opacity:1"
       d="m 331.08453,640.2387 c 6.67944,11.70614 7.35283,11.43532 11.13769,15.02472 3.78486,3.5894 4.11989,13.3484 3.56797,18.46908 -3.47057,-14.70565 -5.86347,-8.7901 -7.35283,-7.35283 0,0 -7.35283,11.59153 0,29.41131 -11.15366,-14.70565 -18.76432,-29.14048 -7.35283,-55.55228 z"
       id="path5943-6"
       inkscape:connector-curvature="0"
       sodipodi:nodetypes="czcscc" />
    <path
       style="display:inline;fill:#2b1100;fill-opacity:1;fill-rule:evenodd;stroke:#2b1100;stroke-width:5;stroke-linejoin:round;stroke-miterlimit:4;stroke-dasharray:none;stroke-opacity:1"
       d="m 388.91547,640.2387 c -6.67944,11.70614 -7.35283,11.43532 -11.13769,15.02472 -3.78486,3.5894 -4.11989,13.3484 -3.56797,18.46908 3.47057,-14.70565 5.86347,-8.7901 7.35283,-7.35283 0,0 7.35283,11.59153 0,29.41131 11.15366,-14.70565 18.76432,-29.14048 7.35283,-55.55228 z"
       id="path5943-6-5"
       inkscape:connector-curvature="0"
       sodipodi:nodetypes="czcscc" />
  </g>
  <g
     inkscape:groupmode="layer"
     id="layer6"
     inkscape:label="Text Ren"
     style="display:inline">
    <flowRoot
       xml:space="preserve"
       id="flowRoot3364"
       style="font-style:normal;font-weight:normal;font-size:123.75px;line-height:125%;font-family:sans-serif;letter-spacing:0px;word-spacing:0px;display:inline;fill:#000000;fill-opacity:1;stroke:none;stroke-width:1px;stroke-linecap:butt;stroke-linejoin:miter;stroke-opacity:1"
       transform="translate(-0.3683258,-46.416201)"><flowRegion
         id="flowRegion3366"><rect
           id="rect3368"
           width="260"
           height="150.00003"
           x="230"
           y="754.36218"
           style="font-size:123.75px"
           ry="0" /></flowRegion><flowPara
         id="flowPara3370"
         style="font-style:normal;font-variant:normal;font-weight:normal;font-stretch:normal;font-size:123.75px;font-family:'Bree Serif';-inkscape-font-specification:'Bree Serif';text-align:center;text-anchor:middle;fill:#ff6600">ren</flowPara></flowRoot>  </g>
  <g
     inkscape:groupmode="layer"
     id="layer8"
     inkscape:label="Text Cs Alternative"
     style="display:none">
    <flowRoot
       xml:space="preserve"
       id="flowRoot3364-1"
       style="font-style:normal;font-weight:normal;font-size:123.75px;line-height:125%;font-family:sans-serif;letter-spacing:0px;word-spacing:0px;display:inline;fill:#000000;fill-opacity:1;stroke:none;stroke-width:1px;stroke-linecap:butt;stroke-linejoin:miter;stroke-opacity:1"
       transform="translate(-5.8677717,96.595054)"><flowRegion
         id="flowRegion3366-4"><rect
           id="rect3368-6"
           width="200"
           height="60.000011"
           x="265.86777"
           y="755.76715"
           style="font-size:123.75px"
           ry="0" /></flowRegion><flowPara
         style="font-style:normal;font-variant:normal;font-weight:normal;font-stretch:normal;font-size:51.25px;font-family:'Bree Serif';-inkscape-font-specification:'Bree Serif';text-align:center;text-anchor:middle;fill:#d40000"
         id="flowPara3390">creative</flowPara></flowRoot>    <flowRoot
       xml:space="preserve"
       id="flowRoot3364-1-8"
       style="font-style:normal;font-weight:normal;font-size:37.5px;line-height:125%;font-family:sans-serif;letter-spacing:0px;word-spacing:0px;display:inline;fill:#000000;fill-opacity:1;stroke:none;stroke-width:1px;stroke-linecap:butt;stroke-linejoin:miter;stroke-opacity:1"
       transform="translate(-6.1157017,143.78511)"><flowRegion
         id="flowRegion3366-4-4"><rect
           id="rect3368-6-6"
           width="200.00002"
           height="60"
           x="266.11569"
           y="758.57709"
           style="font-size:37.5px"
           ry="0" /></flowRegion><flowPara
         style="font-style:normal;font-variant:normal;font-weight:normal;font-stretch:normal;font-size:46.25px;font-family:'Bree Serif';-inkscape-font-specification:'Bree Serif';text-align:center;text-anchor:middle;fill:#d40000"
         id="flowPara3390-9">solutions</flowPara></flowRoot>  </g>
  <g
     inkscape:label="Text Cs"
     id="g5911"
     inkscape:groupmode="layer">
    <flowRoot
       transform="translate(-6.2360958,66.178848)"
       style="font-style:normal;font-weight:normal;font-size:123.75px;line-height:125%;font-family:sans-serif;letter-spacing:0px;word-spacing:0px;display:inline;fill:#3e7c00;fill-opacity:1;stroke:none;stroke-width:1px;stroke-linecap:butt;stroke-linejoin:miter;stroke-opacity:1"
       id="flowRoot5913"
       xml:space="preserve"><flowRegion
         id="flowRegion5915"><rect
           ry="0"
           style="font-size:123.75px;fill:#3e7c00;fill-opacity:1"
           y="765.76715"
           x="265.86777"
           height="40.000004"
           width="200"
           id="rect5917" /></flowRegion><flowPara
         id="flowPara5919"
         style="font-style:normal;font-variant:normal;font-weight:normal;font-stretch:normal;font-size:23.75px;font-family:'Bree Serif';-inkscape-font-specification:'Bree Serif';text-align:center;text-anchor:middle;fill:#3e7c00;fill-opacity:1">creative solutions</flowPara></flowRoot>    <flowRoot
       transform="translate(-6.1157017,143.78511)"
       style="font-style:normal;font-weight:normal;font-size:37.5px;line-height:125%;font-family:sans-serif;letter-spacing:0px;word-spacing:0px;display:inline;fill:#000000;fill-opacity:1;stroke:none;stroke-width:1px;stroke-linecap:butt;stroke-linejoin:miter;stroke-opacity:1"
       id="flowRoot5921"
       xml:space="preserve"><flowRegion
         id="flowRegion5923"><rect
           ry="0"
           style="font-size:37.5px"
           y="758.57709"
           x="266.11569"
           height="60"
           width="200.00002"
           id="rect5925" /></flowRegion><flowPara
         id="flowPara5927"
         style="font-style:normal;font-variant:normal;font-weight:normal;font-stretch:normal;font-size:46.25px;font-family:'Bree Serif';-inkscape-font-specification:'Bree Serif';text-align:center;text-anchor:middle;fill:#d40000" /></flowRoot>  </g>
</svg>
